<svg xmlns="http://www.w3.org/2000/svg" viewBox="0 0 24 24" width="88" height="88">
  <g fill="#fafafa">
    <path d="M12 1.5 C16.2 4.8 16.2 8.2 12 10 C7.8 8.2 7.8 4.8 12 1.5 Z" transform="rotate(0 12 12)"/>
    <path d="M12 1.5 C16.2 4.8 16.2 8.2 12 10 C7.8 8.2 7.8 4.8 12 1.5 Z" transform="rotate(60 12 12)"/>
    <path d="M12 1.5 C16.2 4.8 16.2 8.2 12 10 C7.8 8.2 7.8 4.8 12 1.5 Z" transform="rotate(120 12 12)"/>
    <path d="M12 1.5 C16.2 4.8 16.2 8.2 12 10 C7.8 8.2 7.8 4.8 12 1.5 Z" transform="rotate(180 12 12)"/>
    <path d="M12 1.5 C16.2 4.8 16.2 8.2 12 10 C7.8 8.2 7.8 4.8 12 1.5 Z" transform="rotate(240 12 12)"/>
    <path d="M12 1.5 C16.2 4.8 16.2 8.2 12 10 C7.8 8.2 7.8 4.8 12 1.5 Z" transform="rotate(300 12 12)"/>
    <circle cx="12" cy="12" r="1.7"/>
  </g>
</svg>
